<?xml version="1.0" standalone="no"?>
<!DOCTYPE svg PUBLIC "-//W3C//DTD SVG 20010904//EN"
 "http://www.w3.org/TR/2001/REC-SVG-20010904/DTD/svg10.dtd">
<svg version="1.0" xmlns="http://www.w3.org/2000/svg"
 width="1837.000000pt" height="1912.000000pt" viewBox="0 0 1837.000000 1912.000000"
 preserveAspectRatio="xMidYMid meet">

<g transform="translate(0.000000,1912.000000) scale(0.100000,-0.100000)"
fill="#000000" stroke="none">
<path d="M9052 16700 c-151 -40 -156 -43 -677 -559 -2742 -2714 -3733 -3703
-3768 -3763 -109 -184 -110 -413 -2 -593 177 -295 581 -375 851 -169 28 21
747 730 1598 1574 851 844 1551 1537 1557 1538 5 2 9 -1733 9 -4565 l0 -4568
29 -82 c100 -288 399 -449 695 -373 199 51 347 188 414 385 l27 80 3 4545 c1
2500 2 4554 2 4564 0 20 52 -31 1975 -1940 786 -780 1170 -1154 1212 -1181
100 -65 187 -88 323 -87 98 1 125 4 182 26 204 77 341 233 384 438 28 134 2
282 -73 408 -31 52 -358 382 -1713 1726 -2625 2603 -2526 2507 -2597 2544
-132 69 -291 88 -431 52z"/>
<path d="M883 8585 c-35 -8 -93 -28 -130 -46 -92 -45 -217 -169 -261 -260 -67
-138 -63 -32 -59 -1802 4 -1754 0 -1634 63 -1901 73 -307 225 -618 432 -886
97 -125 290 -313 427 -416 317 -237 643 -375 1066 -451 88 -16 549 -17 6694
-21 4762 -2 6635 0 6725 8 661 58 1271 397 1665 925 108 145 160 232 239 395
99 207 154 378 199 625 21 120 21 125 25 1720 3 1769 6 1673 -60 1807 -44 88
-171 213 -260 256 -170 82 -361 81 -529 -4 -100 -50 -212 -162 -258 -258 -64
-133 -61 -53 -61 -1718 0 -1024 -3 -1542 -11 -1594 -65 -471 -413 -851 -888
-972 l-106 -27 -6595 0 -6595 0 -106 27 c-402 102 -711 384 -838 764 -63 187
-61 129 -61 1799 0 1671 2 1590 -62 1723 -45 93 -168 216 -262 261 -123 58
-261 75 -393 46z"/>
</g>
</svg>
